<svg width="18" height="18" fill="none" xmlns="http://www.w3.org/2000/svg"><path d="M0 5.478c.06-.427.105-.857.18-1.28C.61 1.794 2.289.16 4.686.077c2.887-.101 5.783-.106 8.669 0 2.61.094 4.5 2.054 4.58 4.7.088 2.812.088 5.63 0 8.44-.08 2.647-1.97 4.606-4.58 4.702-2.886.106-5.782.108-8.669-.002-2.61-.1-4.414-2.063-4.588-4.714-.016-.23-.064-.457-.097-.685V5.478zm9.002 10.873c1.321 0 2.644.04 3.963-.01 2.068-.077 3.34-1.329 3.389-3.424.06-2.611.06-5.226 0-7.837-.049-2.095-1.322-3.376-3.39-3.42a184.451 184.451 0 0 0-7.875 0c-2.051.043-3.327 1.298-3.383 3.37-.07 2.644-.07 5.293 0 7.937.056 2.072 1.332 3.298 3.384 3.375 1.302.049 2.608.01 3.912.01z" fill="#606060"/><path d="M9 4.35C6.467 4.35 4.413 6.43 4.413 9c0 2.569 2.054 4.651 4.587 4.651s4.587-2.082 4.587-4.65c0-2.57-2.054-4.652-4.587-4.652zm0 7.7c-1.661 0-3.008-1.365-3.008-3.05C5.992 7.316 7.34 5.95 9 5.95S12.008 7.316 12.008 9c0 1.685-1.347 3.05-3.008 3.05zM14.946 4.137c0 .611-.489 1.106-1.091 1.106a1.099 1.099 0 0 1-1.092-1.106 1.1 1.1 0 0 1 1.091-1.107c.603 0 1.092.496 1.092 1.107z" fill="#606060"/></svg>