<svg width="18" height="18" fill="none" xmlns="http://www.w3.org/2000/svg"><path d="M17.592 3.7a6.824 6.824 0 0 1-.87.318c.351-.398.62-.866.783-1.378a.29.29 0 0 0-.425-.338 6.851 6.851 0 0 1-2.025.8A3.883 3.883 0 0 0 12.351 2a3.868 3.868 0 0 0-3.833 4.363 9.893 9.893 0 0 1-6.79-3.602.29.29 0 0 0-.476.037A3.862 3.862 0 0 0 .73 4.741c0 .931.332 1.815.92 2.505a3.273 3.273 0 0 1-.518-.231.29.29 0 0 0-.43.247L.7 7.314c0 1.39.748 2.64 1.891 3.323a3.34 3.34 0 0 1-.294-.043.29.29 0 0 0-.33.374 3.863 3.863 0 0 0 2.83 2.59A6.836 6.836 0 0 1 1.143 14.6c-.274 0-.55-.016-.819-.048a.29.29 0 0 0-.19.532 10.42 10.42 0 0 0 5.635 1.652c3.934 0 6.395-1.855 7.767-3.411 1.71-1.94 2.691-4.51 2.691-7.047 0-.106-.002-.214-.005-.32a7.513 7.513 0 0 0 1.729-1.831.29.29 0 0 0-.359-.427z" fill="#606060"/></svg>