<svg width="18" height="18" fill="none" xmlns="http://www.w3.org/2000/svg"><path d="M9 18a2.174 2.174 0 0 1-1.462-.566l-.515-.465a.336.336 0 0 0-.295-.08l-.679.147a2.174 2.174 0 0 1-2.533-1.463l-.213-.66a.335.335 0 0 0-.216-.216l-.66-.213A2.174 2.174 0 0 1 .964 11.95l.146-.68a.335.335 0 0 0-.079-.294l-.465-.515a2.174 2.174 0 0 1 0-2.924l.465-.515a.336.336 0 0 0 .08-.295l-.147-.679a2.174 2.174 0 0 1 1.463-2.533l.66-.213a.336.336 0 0 0 .216-.216l.213-.66A2.174 2.174 0 0 1 6.05.964l.679.146a.335.335 0 0 0 .295-.079l.515-.465a2.174 2.174 0 0 1 2.924 0l.515.465c.08.072.19.102.295.08l.679-.147a2.173 2.173 0 0 1 2.533 1.463l.213.66a.336.336 0 0 0 .216.216l.66.213a2.174 2.174 0 0 1 1.463 2.533l-.146.68a.336.336 0 0 0 .079.294l.465.515a2.174 2.174 0 0 1 0 2.925l-.465.514a.336.336 0 0 0-.08.295l.147.679a2.174 2.174 0 0 1-1.463 2.533l-.66.213a.335.335 0 0 0-.216.216l-.213.66a2.174 2.174 0 0 1-2.533 1.463l-.679-.146a.335.335 0 0 0-.295.079l-.514.466c-.417.377-.94.565-1.463.565z" fill="#5EFF50"/><path d="M9.488 11.114L12.9 7.705a.859.859 0 0 0-.006-1.223.881.881 0 0 0-1.237.005L8.244 9.898a.473.473 0 0 1-.668.003l-1.23-1.246a.881.881 0 0 0-1.236-.014.86.86 0 0 0-.015 1.223l1.232 1.249c.422.423.983.656 1.581.656s1.16-.233 1.58-.655z" fill="#1B1B1B"/></svg>