<svg width="252" height="20" viewBox="0 0 252 20" fill="none" xmlns="http://www.w3.org/2000/svg">
<g opacity="0.6">
<path d="M119.922 17.02L124.975 10.9063L130.045 17.02H132L125.986 9.91487L131.818 3.02002H129.863L125.008 8.86337L120.121 3.02002H118.149L123.998 9.80972L118 17.02H119.922Z" fill="white"/>
<path d="M2.2634 16.822H0L1.28656 2.3178H0.857709L1.09596 0.0955796H5.45598L6.93315 16.822H4.66975L4.40767 13.9546H2.52548L2.2634 16.822ZM2.71608 11.7324H4.21707L3.47849 3.41697L2.71608 11.7324Z" fill="white"/>
<path d="M7.75624 16.822V2.3178H7.39886L7.63711 0.0955796H11.3539L12.4975 9.10394L13.6649 0.0955796H17.3102V16.822H15.0468V3.82318L13.2837 14.4325H11.7351L10.0196 4.10992V16.822H7.75624Z" fill="white"/>
<path d="M24.4646 9.55795V14.6953C24.4646 15.3644 24.2581 15.906 23.8452 16.3202C23.4322 16.7184 22.8922 16.9176 22.2251 16.9176H20.5096C19.8425 16.9176 19.3025 16.7184 18.8895 16.3202C18.4766 15.906 18.2701 15.3644 18.2701 14.6953V2.22222C18.2701 1.55317 18.4766 1.01951 18.8895 0.621267C19.3025 0.207089 19.8425 0 20.5096 0H22.2251C22.8922 0 23.4322 0.207089 23.8452 0.621267C24.2581 1.01951 24.4646 1.55317 24.4646 2.22222V7.57467L22.2012 7.33572V2.3417C22.2012 2.26205 22.1615 2.22222 22.0821 2.22222H20.6526C20.5732 2.22222 20.5335 2.26205 20.5335 2.3417V14.5759C20.5335 14.6555 20.5732 14.6953 20.6526 14.6953H22.0821C22.1615 14.6953 22.2012 14.6555 22.2012 14.5759V9.55795H24.4646Z" fill="white"/>
<path d="M34.6259 7.33572L34.3877 9.55795H31.9575V16.822H29.6941V2.3178H29.3367L29.575 0.0955796H35.1024L34.8642 2.3178H31.9575V7.33572H34.6259Z" fill="white"/>
<path d="M38.1902 1.69654L38.4285 3.91876H36.1651V1.69654H38.1902ZM38.4285 4.87455V16.822H36.1651V7.09678H35.8077L36.0459 4.87455H38.4285Z" fill="white"/>
<path d="M41.5146 17.2999V17.8256C41.5146 17.9052 41.5543 17.945 41.6337 17.945H42.7773C42.8567 17.945 42.8964 17.9052 42.8964 17.8256V15.8901L42.3008 16.822H41.6575C40.9269 16.822 40.3392 16.6149 39.8945 16.2007C39.4656 15.7706 39.2512 15.237 39.2512 14.5998V7.09678C39.2512 6.44365 39.4656 5.91 39.8945 5.49582C40.3392 5.08164 40.9269 4.87455 41.6575 4.87455H41.7528C42.1817 4.87455 42.5629 4.9781 42.8964 5.18519V4.87455H45.1599V17.7778C45.1599 18.4468 44.9534 18.9805 44.5404 19.3787C44.1274 19.7929 43.5874 20 42.9203 20H41.4908C40.8236 20 40.2836 19.7929 39.8706 19.3787C39.4577 18.9805 39.2512 18.4468 39.2512 17.7778V17.2999H41.5146ZM41.6337 7.09678C41.5543 7.09678 41.5146 7.1366 41.5146 7.21625V14.4803C41.5146 14.5599 41.5543 14.5998 41.6337 14.5998H42.8964V7.09678H41.6337Z" fill="white"/>
<path d="M46.0818 16.822V2.3178H45.51L45.7482 0.0955796H48.3452V5.80645L48.9408 4.87455H49.5841C50.3147 4.87455 50.8945 5.08164 51.3233 5.49582C51.7681 5.91 51.9904 6.44365 51.9904 7.09678V14.5998H52.5622L52.324 16.822H49.727V7.21625C49.727 7.1366 49.6873 7.09678 49.6079 7.09678H48.3452V16.822H46.0818Z" fill="white"/>
<path d="M57.2052 14.5998V16.822H55.8233C55.1562 16.822 54.6162 16.6229 54.2032 16.2246C53.7902 15.8104 53.5838 15.2688 53.5838 14.5998V7.09678H52.5831L52.7737 4.87455H53.5838V2.3178H52.9881L53.1787 0.0955796H55.8472V4.87455H57.2052L57.0146 7.09678H55.8472V14.5998H57.2052Z" fill="white"/>
<path d="M67.2012 0.0955796H69.4646V16.822H67.2012L64.5804 6.59498V16.822H62.317V2.3178H61.9596L62.1979 0.0955796H64.6995L67.3441 10.7288L67.2012 0.0955796Z" fill="white"/>
<path d="M72.5554 1.69654L72.7936 3.91876H70.5302V1.69654H72.5554ZM72.7936 4.87455V16.822H70.5302V7.09678H70.1728L70.4111 4.87455H72.7936Z" fill="white"/>
<path d="M75.8797 17.2999V17.8256C75.8797 17.9052 75.9194 17.945 75.9989 17.945H77.1425C77.2219 17.945 77.2616 17.9052 77.2616 17.8256V15.8901L76.666 16.822H76.0227C75.292 16.822 74.7044 16.6149 74.2596 16.2007C73.8308 15.7706 73.6163 15.237 73.6163 14.5998V7.09678C73.6163 6.44365 73.8308 5.91 74.2596 5.49582C74.7044 5.08164 75.292 4.87455 76.0227 4.87455H76.118C76.5468 4.87455 76.928 4.9781 77.2616 5.18519V4.87455H79.525V17.7778C79.525 18.4468 79.3185 18.9805 78.9055 19.3787C78.4926 19.7929 77.9525 20 77.2854 20H75.8559C75.1888 20 74.6488 19.7929 74.2358 19.3787C73.8228 18.9805 73.6163 18.4468 73.6163 17.7778V17.2999H75.8797ZM75.9989 7.09678C75.9194 7.09678 75.8797 7.1366 75.8797 7.21625V14.4803C75.8797 14.5599 75.9194 14.5998 75.9989 14.5998H77.2616V7.09678H75.9989Z" fill="white"/>
<path d="M80.4469 16.822V2.3178H79.8751L80.1134 0.0955796H82.7103V5.80645L83.306 4.87455H83.9492C84.6799 4.87455 85.2596 5.08164 85.6885 5.49582C86.1332 5.91 86.3556 6.44365 86.3556 7.09678V14.5998H86.9274L86.6891 16.822H84.0922V7.21625C84.0922 7.1366 84.0525 7.09678 83.9731 7.09678H82.7103V16.822H80.4469Z" fill="white"/>
<path d="M91.5703 14.5998V16.822H90.1885C89.5214 16.822 88.9813 16.6229 88.5684 16.2246C88.1554 15.8104 87.9489 15.2688 87.9489 14.5998V7.09678H86.9482L87.1388 4.87455H87.9489V2.3178H87.3533L87.5439 0.0955796H90.2123V4.87455H91.5703L91.3797 7.09678H90.2123V14.5998H91.5703Z" fill="white"/>
<path d="M92.2819 13.0705L94.5453 13.3094V14.4803C94.5453 14.5599 94.585 14.5998 94.6645 14.5998H95.6175C95.6969 14.5998 95.7366 14.5599 95.7366 14.4803V12.2581L93.6161 11.3501C93.362 11.2386 93.0761 11.0633 92.7584 10.8244C92.4408 10.5854 92.2819 10.1951 92.2819 9.65353V7.0012C92.2819 6.33214 92.4884 5.79849 92.9014 5.40024C93.3144 4.98606 93.8544 4.77897 94.5215 4.77897H95.7604C96.4275 4.77897 96.9676 4.98606 97.3805 5.40024C97.7935 5.79849 98 6.33214 98 7.0012V8.53047L95.7366 8.29152V7.12067C95.7366 7.04102 95.6969 7.0012 95.6175 7.0012H94.6645C94.585 7.0012 94.5453 7.04102 94.5453 7.12067V9.34289L96.6658 10.2509C96.9199 10.3624 97.2058 10.5376 97.5235 10.7766C97.8412 11.0155 98 11.4058 98 11.9474V14.5998C98 15.2688 97.7935 15.8104 97.3805 16.2246C96.9676 16.6229 96.4275 16.822 95.7604 16.822H94.5215C93.8544 16.822 93.3144 16.6229 92.9014 16.2246C92.4884 15.8104 92.2819 15.2688 92.2819 14.5998V13.0705Z" fill="white"/>
<path d="M158.713 17C163.895 17 167.653 12.7231 167.653 8.42563C167.653 4.44688 165.073 2 160.929 2C155.758 2 152 6.30775 152 10.6463C152 14.584 154.57 17 158.713 17ZM159.195 13.4736C157.289 13.4736 155.876 12.3427 155.876 10.2248C155.876 7.61343 157.921 5.52639 160.458 5.52639C162.364 5.52639 163.777 6.68814 163.777 8.84716C163.777 11.4174 161.743 13.4736 159.195 13.4736Z" fill="white"/>
<path d="M173.528 16.7224C179.106 16.7224 183.196 12.6511 183.196 8.39479C183.196 4.64222 180.551 2.27759 176.269 2.27759H171.033L167.832 16.7224H173.528ZM174.128 5.78341H176.087C178.014 5.78341 179.213 6.91432 179.213 8.62097C179.213 11.2015 177.318 13.2166 174.106 13.2166H172.457L174.128 5.78341Z" fill="white"/>
<path d="M187.213 16.7224L190.415 2.27759H186.56L183.359 16.7224H187.213Z" fill="white"/>
<path d="M193.537 16.7224L195.443 8.10692L199.639 16.7224H202.916L206.117 2.27759H202.37L200.56 10.4407L196.631 2.27759H192.991L189.79 16.7224H193.537Z" fill="white"/>
<path d="M212.518 16.7224L214.959 5.72173H219.006L219.766 2.27759H207.828L207.068 5.72173H211.105L208.664 16.7224H212.518Z" fill="white"/>
<path d="M232.265 6.20494C232.265 3.83002 230.412 2.27759 227.671 2.27759H221.472L218.271 16.7224H222.126L223.153 12.1165H224.706C224.92 12.1165 225.134 12.1062 225.337 12.096L226.569 16.7224H230.691L229.031 11.1809C231.023 10.1837 232.265 8.42563 232.265 6.20494ZM224.588 5.61892H226.911C227.693 5.61892 228.303 6.03016 228.303 6.81151C228.303 7.74709 227.307 8.878 225.905 8.878H223.871L224.588 5.61892Z" fill="white"/>
<path d="M235.938 16.7224L239.139 2.27759H235.285L232.083 16.7224H235.938Z" fill="white"/>
<path d="M242.368 16.7224L245.569 2.27759H241.715L238.514 16.7224H242.368Z" fill="white"/>
<path d="M248.799 16.7224L252 2.27759H248.146L244.944 16.7224H248.799Z" fill="white"/>
</g>
</svg>
