<svg width="160" height="32" viewBox="0 0 160 32" fill="none" xmlns="http://www.w3.org/2000/svg">
<path d="M61.0795 21.7816C59.9518 21.1285 60.5861 20.548 61.1147 20.0037C61.7491 19.3869 62.3482 18.6975 63.0882 18.2259C64.2864 17.4277 64.3569 16.3029 64.2864 15.033C64.2512 14.3074 64.0397 14.3074 63.4759 14.5976C62.7711 15.033 61.9958 15.3596 61.2557 15.7587C60.8681 15.9401 60.4804 15.9764 60.128 15.7224C59.8108 15.4684 59.8108 15.0693 59.9518 14.7428C60.1985 14.0171 60.269 13.2189 60.7976 12.6384C63.0178 10.1712 65.1675 7.59509 67.7048 5.45442C68.1277 5.09159 68.7268 4.91018 69.1849 4.61992C70.0307 4.07568 70.6651 4.0394 70.947 5.20044C71.1232 5.92609 71.7223 5.7084 72.1452 5.63583C73.6253 5.45442 75.1054 5.16416 76.5855 5.12788C78.1714 5.09159 79.6515 5.45442 81.1669 5.78096C82.7175 6.10751 83.1404 7.7765 82.1184 9.37294C80.8145 11.4773 79.0172 13.0738 76.9732 14.3436C75.7398 15.1056 74.4006 15.7587 73.1672 16.5206C72.85 16.7383 72.1452 16.7746 72.3214 17.3551C72.4271 17.7905 72.991 17.6816 73.3786 17.7179C75.1407 17.8993 76.9027 18.0445 78.6295 18.1533C81.5193 18.371 84.2328 19.2781 86.9464 20.1126C87.6865 20.3303 88.0036 20.1851 88.3208 19.5683C89.5542 17.21 90.7877 14.8516 91.7392 12.3844C92.1268 11.3685 92.0916 10.3163 91.6335 9.33665C90.5762 7.1597 90.7877 5.20044 92.4792 3.38631C93.1841 2.62438 93.5365 2.69695 94.0651 3.45888C94.488 4.07568 94.6642 4.76505 95.0166 5.38186C97.3777 9.33665 99.2455 13.5091 100.937 17.7905C101.325 18.8064 101.994 19.1329 103.016 18.879C104.003 18.6613 105.025 18.5524 106.012 18.4073C106.364 18.371 106.787 18.1896 107.034 18.5161C107.316 18.879 106.858 19.1692 106.717 19.4595C106.258 20.5117 105.201 20.9471 104.426 21.6727C103.474 22.5435 103.439 23.3054 104.038 24.3939C104.743 25.7001 105.272 27.0788 105.906 28.4576C106.47 29.7637 105.307 29.8 104.673 30.2354C104.074 30.7071 103.651 30.5982 103.157 29.9451C102.03 28.4938 101.571 26.6071 100.091 25.4098C99.5274 24.9744 99.1398 24.7567 98.4702 24.9744C95.6157 25.9178 92.7964 26.8611 89.9419 27.8045C89.0609 28.0947 88.1798 28.3487 87.2636 28.5664C86.3473 28.8204 85.8892 28.4576 86.0654 27.4416C86.2063 26.462 86.594 25.3735 86.2063 24.5028C85.713 23.4506 84.4443 23.9585 83.5633 23.7408C79.1229 22.7612 74.5768 22.4709 70.066 22.3621C69.1144 22.3258 68.9735 22.87 69.0087 23.632C69.0792 25.9178 69.6431 28.0947 70.3126 30.2717C70.4184 30.6345 70.7708 31.0699 70.2774 31.3602C69.8545 31.6141 69.5021 31.215 69.2202 30.961C67.9867 29.8363 67.0705 28.4576 66.6828 26.7886C66.4009 25.6638 66.119 24.5028 65.9428 23.3417C65.8018 22.3621 65.3789 21.8904 64.3922 21.9267C63.9693 21.963 63.5111 21.8541 63.0882 21.8541C62.4891 21.8541 61.6081 21.6002 62.4539 22.7612C63.0178 23.5231 62.172 23.7771 61.6786 23.9585C59.0355 24.9744 56.3572 25.3373 53.5379 24.8656C49.5909 24.2125 45.7144 23.124 41.8379 22.1444C41.5912 22.0718 41.3445 21.9993 41.0626 21.963C39.5825 21.6727 39.4063 21.8178 39.6177 23.378C39.8997 25.4824 40.1111 27.6231 40.8864 29.6186C41.0274 30.0177 41.3093 30.5257 40.8864 30.8885C40.4635 31.2513 40.0054 30.9973 39.5472 30.8159C38.1024 30.2354 37.5737 28.9655 37.1861 27.5868C36.9394 26.716 36.7632 25.8452 36.5165 24.9744C36.3051 24.2851 36.1993 23.5957 35.3183 23.4143C34.684 23.2691 34.543 22.6161 34.684 21.963C34.8954 20.9833 34.6135 20.1126 34.0849 19.2781C33.4153 18.2259 33.1686 17.0286 32.9572 15.8312C32.499 13.3277 31.9704 10.8605 32.3581 8.28446C32.6048 6.68803 34.3668 5.05531 35.8822 5.05531C36.5165 5.05531 36.9394 5.30929 36.9746 6.07122C37.1509 9.30037 38.349 12.3481 38.6662 15.541C38.7719 16.5932 39.371 16.1941 39.8644 15.7949C43.4238 12.8198 47.5117 10.8242 51.7759 9.15524C53.9961 8.28446 56.3572 7.81279 58.6479 7.26855C59.2117 7.12342 59.9165 7.12342 60.1985 7.74022C60.5156 8.42959 59.7756 8.64728 59.4232 8.93754C57.6259 10.4977 55.3352 10.9331 53.1855 11.695C50.19 12.7472 47.265 13.9808 44.6572 15.9038C44.1638 16.2666 43.5295 16.702 44.6219 17.0286C50.0491 18.5887 55.3352 20.5842 60.8328 21.7816C60.8681 21.7816 60.9385 21.7816 61.0795 21.7816ZM74.2244 8.21189C72.9205 8.42959 71.7223 8.611 70.4888 8.79241C69.8898 8.90126 69.5373 9.30037 69.5021 9.91717C69.3611 11.441 69.2554 12.9649 69.1497 14.4888C69.1144 15.2507 69.5726 15.287 70.1012 14.9967C71.4051 14.3436 72.709 13.7268 73.9777 13.0012C75.0702 12.3844 76.0569 11.6225 76.7617 10.534C77.5371 9.40922 77.3256 8.8287 76.0569 8.53844C75.4578 8.42959 74.8235 8.35702 74.2244 8.21189ZM91.3868 21.6364C92.9021 21.3825 94.347 20.8019 95.8271 20.3303C96.1443 20.2214 96.2853 20.04 96.1443 19.7135C95.4747 18.4436 95.0518 17.0286 94.1708 15.8675C93.8889 15.5047 93.607 15.4321 93.3603 15.9038C92.5497 17.5728 91.7039 19.2055 90.9286 20.8745C90.6819 21.3825 90.7877 21.709 91.3868 21.6364Z" fill="white"/>
<path d="M126.346 14.7429C126.381 13.7995 126.451 12.8562 126.487 11.8765C126.522 11.2235 126.31 10.9695 125.641 11.1146C123.174 11.6951 120.672 12.2756 118.17 12.8562C117.394 13.0376 116.971 13.5455 117.007 14.4163C117.042 15.9039 117.042 17.3915 117.077 18.8791C117.077 19.7861 117.712 19.8224 118.346 19.8224C120.002 19.8587 121.694 19.6773 123.35 20.0401C124.724 20.3667 124.795 20.802 123.914 21.9268C122.504 23.7409 120.425 24.4303 118.557 25.3737C117.535 25.8816 117.289 26.4984 117.606 27.5143C117.852 28.24 118.099 28.9656 118.346 29.6913C118.522 30.2718 118.804 30.816 118.029 31.1789C117.289 31.5417 116.549 31.7231 116.055 30.8886C115.421 29.7638 114.857 28.5665 114.293 27.4055C113.941 26.6435 113.518 26.0267 112.566 25.9905C111.897 25.9542 111.474 25.5188 111.58 24.7931C111.756 23.4507 111.615 21.9631 112.531 20.9109C113.765 19.5322 113.87 17.8269 113.976 16.1579C114.011 15.5774 114.54 14.7791 113.941 14.38C113.412 14.0535 112.848 14.7429 112.32 15.0331C111.474 15.4685 110.804 16.0853 110.17 16.811C109.571 17.5003 108.866 17.6455 108.161 17.1375C107.492 16.6658 107.738 15.9402 107.985 15.2871C108.478 13.8358 109.641 13.0739 110.769 12.3119C112.038 11.4411 113.447 10.7155 114.787 9.98985C115.245 9.73587 115.703 9.44561 116.09 9.0465C116.76 8.35713 117.253 7.92174 118.452 8.39342C119.368 8.75624 120.707 8.212 121.729 7.77661C123.139 7.15981 124.584 6.94211 126.064 6.68814C127.191 6.50672 127.755 5.96248 128.002 4.83772C128.39 3.20501 129.306 1.89884 130.469 0.737796C131.033 0.193557 131.632 -0.0604207 132.372 0.0121444C133.112 0.0847095 133.57 0.556383 133.359 1.28203C133.041 2.44308 132.724 3.67668 131.526 4.2572C131.033 4.51118 130.68 4.83772 130.751 5.38196C131.103 8.46598 129.905 11.3686 129.729 14.38C129.588 16.4844 129.623 18.5525 129.588 20.6206C129.588 21.1286 129.588 21.6365 129.517 22.1082C129.482 22.5436 129.376 23.0153 128.812 23.0879C128.284 23.1604 128.037 22.8702 127.79 22.4348C127.121 21.2012 126.663 19.895 126.592 18.4437C126.487 17.1738 126.416 15.9039 126.31 14.634C126.31 14.7429 126.31 14.7429 126.346 14.7429Z" fill="white"/>
<path d="M0.00678267 20.5479C-0.0989403 17.1374 1.02877 13.9808 3.56612 11.3321C4.30618 10.5702 5.11673 9.84456 6.10347 9.44546C7.01974 9.08263 7.61884 9.40917 8.07697 10.2437C8.57034 11.1145 8.04173 11.5136 7.44263 11.8764C4.16522 13.7631 4.34142 16.9922 4.58811 20.1125C4.72908 21.9992 6.27968 23.2328 8.25318 23.378C11.3896 23.6682 14.0679 22.3258 16.3586 20.4028C18.5788 18.5524 18.3673 13.364 16.2529 11.4773C16.0767 11.3321 15.9357 11.187 15.7595 11.0419C14.5613 9.95341 14.5966 9.48174 16.0062 8.71981C16.1119 8.64724 16.2881 8.64724 16.3586 8.53839C17.874 6.6517 19.6008 7.4862 21.3276 8.13929C22.2438 8.46583 22.4201 9.37289 22.6667 10.1711C24.0764 14.8153 22.4201 18.6975 19.2484 21.709C16.6405 24.2125 13.6098 26.3894 9.97998 27.2239C7.83028 27.7319 5.68058 27.6956 3.60136 26.9336C1.41642 26.1717 0.00678267 23.6682 0.00678267 20.5479Z" fill="white"/>
<path d="M140.019 25.8453C140.16 22.9064 140.019 19.5684 140.724 16.2304C140.865 15.541 141.006 14.8154 141.217 14.126C141.499 13.0738 141.253 12.5658 140.09 12.7835C138.962 13.0012 137.834 13.1464 136.707 13.2915C136.284 13.3278 135.826 13.3278 135.403 13.2915C134.698 13.2189 133.923 13.1101 133.57 12.4207C133.182 11.6951 133.887 11.1871 134.24 10.6429C134.592 10.1349 135.015 9.66324 135.403 9.15529C136.319 7.8854 137.411 7.37744 139.068 7.6677C140.865 7.99425 142.768 7.70398 144.601 7.48629C148.653 6.97833 152.741 6.50666 156.829 6.68807C157.534 6.72435 158.239 6.79692 158.908 6.90577C159.331 6.97833 159.825 7.0509 159.966 7.59514C160.107 8.17566 159.79 8.61105 159.437 8.90131C157.851 10.3889 156.195 11.6225 153.834 11.296C151.578 10.9694 149.393 11.9128 147.138 11.8765C146.433 11.8765 146.081 12.3844 145.975 13.1101C144.847 19.133 142.627 24.9745 142.803 31.2151C142.803 31.5416 142.839 32.1222 142.345 31.977C141.746 31.7593 140.865 31.8682 140.618 30.9611C140.16 29.401 139.808 27.8408 140.019 25.8453Z" fill="white"/>
<path d="M26.5785 29.0383C24.6754 29.0383 24.0059 28.24 24.323 26.4622C24.5345 25.3012 24.8516 24.1764 25.2393 23.0879C25.6269 21.9632 26.8604 21.6003 27.8471 22.2171C29.8911 23.5233 30.2435 26.571 28.6224 28.3126C27.9881 29.002 27.248 29.1108 26.5785 29.0383Z" fill="white"/>
</svg>
