<svg width="1475" height="257" viewBox="0 0 1475 257" fill="none" xmlns="http://www.w3.org/2000/svg">
<path d="M562.788 174.467C552.397 169.236 558.242 164.586 563.112 160.227C568.957 155.286 574.477 149.764 581.296 145.986C592.337 139.593 592.986 130.584 592.337 120.412C592.012 114.6 590.064 114.6 584.868 116.924C578.374 120.412 571.23 123.027 564.411 126.224C560.839 127.677 557.268 127.968 554.021 125.934C551.098 123.899 551.098 120.703 552.397 118.087C554.67 112.275 555.319 105.881 560.19 101.231C580.647 81.469 600.454 60.835 623.834 43.6885C627.73 40.7823 633.25 39.3292 637.472 37.0042C645.265 32.6449 651.11 32.3543 653.707 41.6541C655.331 47.4665 660.851 45.7228 664.747 45.1416C678.385 43.6885 692.023 41.3635 705.661 41.0729C720.273 40.7823 733.911 43.6885 747.874 46.304C762.161 48.9196 766.058 62.2881 756.641 75.0753C744.627 91.9312 728.066 104.718 709.233 114.89C697.868 120.993 685.529 126.224 674.164 132.327C671.242 134.071 664.747 134.362 666.371 139.012C667.345 142.499 672.541 141.627 676.112 141.918C692.348 143.371 708.584 144.533 724.495 145.405C751.121 147.149 776.124 154.414 801.127 161.099C807.946 162.842 810.868 161.68 813.791 156.739C825.156 137.849 836.52 118.959 845.288 99.1967C848.86 91.0594 848.535 82.6314 844.314 74.7847C834.572 57.3476 836.52 41.6541 852.107 27.1232C858.601 21.0202 861.848 21.6014 866.719 27.7044C870.615 32.6449 872.239 38.1667 875.486 43.1072C897.242 74.7847 914.451 108.206 930.038 142.499C933.61 150.636 939.779 153.252 949.196 151.218C958.288 149.474 967.704 148.602 976.796 147.439C980.043 147.149 983.94 145.696 986.213 148.311C988.811 151.218 984.589 153.542 983.291 155.867C979.069 164.295 969.328 167.783 962.184 173.595C953.417 180.57 953.092 186.673 958.612 195.392C965.107 205.854 969.977 216.897 975.822 227.941C981.018 238.403 970.302 238.694 964.457 242.181C958.937 245.959 955.041 245.088 950.495 239.856C940.104 228.232 935.883 213.119 922.245 203.529C917.049 200.042 913.477 198.298 907.308 200.042C881.006 207.598 855.029 215.154 828.727 222.71C820.61 225.035 812.492 227.069 804.049 228.813C795.607 230.847 791.385 227.941 793.009 219.804C794.308 211.957 797.88 203.238 794.308 196.264C789.762 187.836 778.072 191.904 769.954 190.161C729.041 182.314 687.153 179.989 645.589 179.117C636.822 178.826 635.523 183.186 635.848 189.289C636.497 207.598 641.693 225.035 647.862 242.472C648.837 245.378 652.084 248.866 647.538 251.191C643.641 253.225 640.394 250.028 637.796 247.994C626.431 238.985 617.989 227.941 614.417 214.573C611.819 205.563 609.222 196.264 607.598 186.964C606.299 179.117 602.403 175.339 593.311 175.63C589.414 175.92 585.193 175.048 581.296 175.048C575.776 175.048 567.658 173.014 575.452 182.314C580.647 188.417 572.854 190.451 568.308 191.904C543.954 200.042 519.276 202.948 493.299 199.17C456.931 193.939 421.213 185.22 385.495 177.373C383.222 176.792 380.949 176.211 378.351 175.92C364.713 173.595 363.089 174.758 365.038 187.254C367.635 204.11 369.584 221.257 376.727 237.241C378.026 240.438 380.624 244.506 376.727 247.412C372.831 250.319 368.61 248.284 364.388 246.831C351.075 242.181 346.204 232.01 342.633 220.966C340.36 213.991 338.736 207.016 336.463 200.042C334.515 194.52 333.541 188.998 325.423 187.545C319.578 186.382 318.279 181.151 319.578 175.92C321.526 168.073 318.929 161.099 314.058 154.414C307.888 145.986 305.615 136.396 303.667 126.806C299.446 106.753 294.575 86.9907 298.147 66.3568C300.42 53.5695 316.656 40.4917 330.618 40.4917C336.463 40.4917 340.36 42.526 340.684 48.629C342.308 74.4941 353.348 98.9061 356.271 124.481C357.245 132.909 362.765 129.712 367.311 126.515C400.107 102.684 437.773 86.7001 477.064 73.3316C497.52 66.3568 519.276 62.5787 540.383 58.2194C545.578 57.0569 552.072 57.0569 554.67 61.9975C557.592 67.5192 550.773 69.2629 547.526 71.5879C530.966 84.0845 509.86 87.5719 490.052 93.675C462.452 102.103 435.5 111.984 411.472 127.387C406.926 130.293 401.081 133.78 411.147 136.396C461.153 148.893 509.86 164.877 560.515 174.467C560.839 174.467 561.489 174.467 562.788 174.467ZM683.906 65.7755C671.891 67.5192 660.851 68.9723 649.486 70.4254C643.966 71.2973 640.719 74.4941 640.394 79.4346C639.095 91.6406 638.121 103.847 637.147 116.053C636.822 122.156 641.043 122.446 645.914 120.121C657.929 114.89 669.943 109.95 681.633 104.137C691.699 99.1967 700.791 93.0937 707.285 84.3751C714.429 75.3659 712.48 70.716 700.791 68.3911C695.27 67.5192 689.426 66.938 683.906 65.7755ZM842.041 173.305C856.003 171.27 869.316 166.62 882.954 162.842C885.877 161.97 887.176 160.517 885.877 157.902C879.707 147.73 875.811 136.396 867.693 127.096C865.095 124.19 862.497 123.609 860.224 127.387C852.756 140.755 844.963 153.833 837.819 167.202C835.546 171.27 836.52 173.886 842.041 173.305Z" fill="url(#paint0_linear)"/>
<path d="M562.788 174.467C552.397 169.236 558.242 164.586 563.112 160.227C568.957 155.286 574.477 149.764 581.296 145.986C592.337 139.593 592.986 130.584 592.337 120.412C592.012 114.6 590.064 114.6 584.868 116.924C578.374 120.412 571.23 123.027 564.411 126.224C560.839 127.677 557.268 127.968 554.021 125.934C551.098 123.899 551.098 120.703 552.397 118.087C554.67 112.275 555.319 105.881 560.19 101.231C580.647 81.469 600.454 60.835 623.834 43.6885C627.73 40.7823 633.25 39.3292 637.472 37.0042C645.265 32.6449 651.11 32.3543 653.707 41.6541C655.331 47.4665 660.851 45.7228 664.747 45.1416C678.385 43.6885 692.023 41.3635 705.661 41.0729C720.273 40.7823 733.911 43.6885 747.874 46.304C762.161 48.9196 766.058 62.2881 756.641 75.0753C744.627 91.9312 728.066 104.718 709.233 114.89C697.868 120.993 685.529 126.224 674.164 132.327C671.242 134.071 664.747 134.362 666.371 139.012C667.345 142.499 672.541 141.627 676.112 141.918C692.348 143.371 708.584 144.533 724.495 145.405C751.121 147.149 776.124 154.414 801.127 161.099C807.946 162.842 810.868 161.68 813.791 156.739C825.156 137.849 836.52 118.959 845.288 99.1967C848.86 91.0594 848.535 82.6314 844.314 74.7847C834.572 57.3476 836.52 41.6541 852.107 27.1232C858.601 21.0202 861.848 21.6014 866.719 27.7044C870.615 32.6449 872.239 38.1667 875.486 43.1072C897.242 74.7847 914.451 108.206 930.038 142.499C933.61 150.636 939.779 153.252 949.196 151.218C958.288 149.474 967.704 148.602 976.796 147.439C980.043 147.149 983.94 145.696 986.213 148.311C988.811 151.218 984.589 153.542 983.291 155.867C979.069 164.295 969.328 167.783 962.184 173.595C953.417 180.57 953.092 186.673 958.612 195.392C965.107 205.854 969.977 216.897 975.822 227.941C981.018 238.403 970.302 238.694 964.457 242.181C958.937 245.959 955.041 245.088 950.495 239.856C940.104 228.232 935.883 213.119 922.245 203.529C917.049 200.042 913.477 198.298 907.308 200.042C881.006 207.598 855.029 215.154 828.727 222.71C820.61 225.035 812.492 227.069 804.049 228.813C795.607 230.847 791.385 227.941 793.009 219.804C794.308 211.957 797.88 203.238 794.308 196.264C789.762 187.836 778.072 191.904 769.954 190.161C729.041 182.314 687.153 179.989 645.589 179.117C636.822 178.826 635.523 183.186 635.848 189.289C636.497 207.598 641.693 225.035 647.862 242.472C648.837 245.378 652.084 248.866 647.538 251.191C643.641 253.225 640.394 250.028 637.796 247.994C626.431 238.985 617.989 227.941 614.417 214.573C611.819 205.563 609.222 196.264 607.598 186.964C606.299 179.117 602.403 175.339 593.311 175.63C589.414 175.92 585.193 175.048 581.296 175.048C575.776 175.048 567.658 173.014 575.452 182.314C580.647 188.417 572.854 190.451 568.308 191.904C543.954 200.042 519.276 202.948 493.299 199.17C456.931 193.939 421.213 185.22 385.495 177.373C383.222 176.792 380.949 176.211 378.351 175.92C364.713 173.595 363.089 174.758 365.038 187.254C367.635 204.11 369.584 221.257 376.727 237.241C378.026 240.438 380.624 244.506 376.727 247.412C372.831 250.319 368.61 248.284 364.388 246.831C351.075 242.181 346.204 232.01 342.633 220.966C340.36 213.991 338.736 207.016 336.463 200.042C334.515 194.52 333.541 188.998 325.423 187.545C319.578 186.382 318.279 181.151 319.578 175.92C321.526 168.073 318.929 161.099 314.058 154.414C307.888 145.986 305.615 136.396 303.667 126.806C299.446 106.753 294.575 86.9907 298.147 66.3568C300.42 53.5695 316.656 40.4917 330.618 40.4917C336.463 40.4917 340.36 42.526 340.684 48.629C342.308 74.4941 353.348 98.9061 356.271 124.481C357.245 132.909 362.765 129.712 367.311 126.515C400.107 102.684 437.773 86.7001 477.064 73.3316C497.52 66.3568 519.276 62.5787 540.383 58.2194C545.578 57.0569 552.072 57.0569 554.67 61.9975C557.592 67.5192 550.773 69.2629 547.526 71.5879C530.966 84.0845 509.86 87.5719 490.052 93.675C462.452 102.103 435.5 111.984 411.472 127.387C406.926 130.293 401.081 133.78 411.147 136.396C461.153 148.893 509.86 164.877 560.515 174.467C560.839 174.467 561.489 174.467 562.788 174.467ZM683.906 65.7755C671.891 67.5192 660.851 68.9723 649.486 70.4254C643.966 71.2973 640.719 74.4941 640.394 79.4346C639.095 91.6406 638.121 103.847 637.147 116.053C636.822 122.156 641.043 122.446 645.914 120.121C657.929 114.89 669.943 109.95 681.633 104.137C691.699 99.1967 700.791 93.0937 707.285 84.3751C714.429 75.3659 712.48 70.716 700.791 68.3911C695.27 67.5192 689.426 66.938 683.906 65.7755ZM842.041 173.305C856.003 171.27 869.316 166.62 882.954 162.842C885.877 161.97 887.176 160.517 885.877 157.902C879.707 147.73 875.811 136.396 867.693 127.096C865.095 124.19 862.497 123.609 860.224 127.387C852.756 140.755 844.963 153.833 837.819 167.202C835.546 171.27 836.52 173.886 842.041 173.305Z" fill="white"/>
<path d="M1164.16 118.089C1164.48 110.533 1165.13 102.976 1165.45 95.1298C1165.78 89.8986 1163.83 87.8643 1157.66 89.0268C1134.93 93.6767 1111.88 98.3266 1088.82 102.976C1081.68 104.43 1077.78 108.498 1078.11 115.473C1078.43 127.389 1078.43 139.304 1078.76 151.219C1078.76 158.485 1084.6 158.775 1090.45 158.775C1105.71 159.066 1121.29 157.613 1136.55 160.519C1149.22 163.135 1149.87 166.622 1141.75 175.631C1128.76 190.162 1109.6 195.684 1092.39 203.24C1082.98 207.309 1080.7 212.249 1083.63 220.387C1085.9 226.199 1088.17 232.011 1090.45 237.824C1092.07 242.474 1094.67 246.833 1087.52 249.739C1080.7 252.645 1073.89 254.098 1069.34 247.414C1063.49 238.405 1058.3 228.815 1053.1 219.515C1049.86 213.412 1045.96 208.471 1037.19 208.181C1031.02 207.89 1027.13 204.403 1028.1 198.59C1029.72 187.837 1028.43 175.922 1036.87 167.494C1048.23 156.45 1049.21 142.791 1050.18 129.423C1050.51 124.773 1055.38 118.379 1049.86 115.183C1044.99 112.567 1039.79 118.089 1034.92 120.414C1027.13 123.901 1020.96 128.842 1015.11 134.654C1009.59 140.176 1003.1 141.338 996.604 137.27C990.434 133.492 992.707 127.679 994.98 122.448C999.526 110.823 1010.24 104.72 1020.63 98.6172C1032.32 91.6423 1045.31 85.83 1057.65 80.0176C1061.87 77.9832 1066.09 75.6583 1069.66 72.4615C1075.83 66.9397 1080.38 63.4523 1091.42 67.2303C1099.86 70.1365 1112.2 65.7772 1121.62 62.2898C1134.61 57.3493 1147.92 55.6056 1161.56 53.5712C1171.95 52.1181 1177.14 47.7588 1179.42 38.7496C1182.99 25.6718 1191.43 15.2095 1202.15 5.90966C1207.34 1.55037 1212.86 -0.483963 1219.68 0.0972755C1226.5 0.678514 1230.72 4.45656 1228.77 10.2689C1225.85 19.5688 1222.93 29.4498 1211.89 34.0997C1207.34 36.1341 1204.1 38.7496 1204.74 43.1089C1207.99 67.8116 1196.95 91.0611 1195.33 115.183C1194.03 132.038 1194.35 148.604 1194.03 165.169C1194.03 169.238 1194.03 173.306 1193.38 177.084C1193.05 180.572 1192.08 184.35 1186.89 184.931C1182.01 185.512 1179.74 183.187 1177.47 179.7C1171.3 169.819 1167.08 159.357 1166.43 147.732C1165.45 137.56 1164.8 127.389 1163.83 117.217C1163.83 118.089 1163.83 118.089 1164.16 118.089Z" fill="url(#paint1_linear)"/>
<path d="M1164.16 118.089C1164.48 110.533 1165.13 102.976 1165.45 95.1298C1165.78 89.8986 1163.83 87.8643 1157.66 89.0268C1134.93 93.6767 1111.88 98.3266 1088.82 102.976C1081.68 104.43 1077.78 108.498 1078.11 115.473C1078.43 127.389 1078.43 139.304 1078.76 151.219C1078.76 158.485 1084.6 158.775 1090.45 158.775C1105.71 159.066 1121.29 157.613 1136.55 160.519C1149.22 163.135 1149.87 166.622 1141.75 175.631C1128.76 190.162 1109.6 195.684 1092.39 203.24C1082.98 207.309 1080.7 212.249 1083.63 220.387C1085.9 226.199 1088.17 232.011 1090.45 237.824C1092.07 242.474 1094.67 246.833 1087.52 249.739C1080.7 252.645 1073.89 254.098 1069.34 247.414C1063.49 238.405 1058.3 228.815 1053.1 219.515C1049.86 213.412 1045.96 208.471 1037.19 208.181C1031.02 207.89 1027.13 204.403 1028.1 198.59C1029.72 187.837 1028.43 175.922 1036.87 167.494C1048.23 156.45 1049.21 142.791 1050.18 129.423C1050.51 124.773 1055.38 118.379 1049.86 115.183C1044.99 112.567 1039.79 118.089 1034.92 120.414C1027.13 123.901 1020.96 128.842 1015.11 134.654C1009.59 140.176 1003.1 141.338 996.604 137.27C990.434 133.492 992.707 127.679 994.98 122.448C999.526 110.823 1010.24 104.72 1020.63 98.6172C1032.32 91.6423 1045.31 85.83 1057.65 80.0176C1061.87 77.9832 1066.09 75.6583 1069.66 72.4615C1075.83 66.9397 1080.38 63.4523 1091.42 67.2303C1099.86 70.1365 1112.2 65.7772 1121.62 62.2898C1134.61 57.3493 1147.92 55.6056 1161.56 53.5712C1171.95 52.1181 1177.14 47.7588 1179.42 38.7496C1182.99 25.6718 1191.43 15.2095 1202.15 5.90966C1207.34 1.55037 1212.86 -0.483963 1219.68 0.0972755C1226.5 0.678514 1230.72 4.45656 1228.77 10.2689C1225.85 19.5688 1222.93 29.4498 1211.89 34.0997C1207.34 36.1341 1204.1 38.7496 1204.74 43.1089C1207.99 67.8116 1196.95 91.0611 1195.33 115.183C1194.03 132.038 1194.35 148.604 1194.03 165.169C1194.03 169.238 1194.03 173.306 1193.38 177.084C1193.05 180.572 1192.08 184.35 1186.89 184.931C1182.01 185.512 1179.74 183.187 1177.47 179.7C1171.3 169.819 1167.08 159.357 1166.43 147.732C1165.45 137.56 1164.8 127.389 1163.83 117.217C1163.83 118.089 1163.83 118.089 1164.16 118.089Z" fill="white"/>
<path d="M0.0624959 164.586C-0.911642 137.268 9.47916 111.984 32.8585 90.769C39.6774 84.666 47.1458 78.8536 56.2378 75.6568C64.6803 72.7506 70.2004 75.3662 74.4217 82.0505C78.9676 89.0253 74.0969 92.2221 68.5768 95.1283C38.3786 110.241 40.0021 136.106 42.2751 161.099C43.574 176.211 57.8613 186.092 76.0452 187.255C104.945 189.58 129.623 178.827 150.729 163.424C171.186 148.602 169.238 107.044 149.755 91.9315C148.131 90.769 146.833 89.6066 145.209 88.4441C134.169 79.7255 134.493 75.9475 147.482 69.8445C148.456 69.2632 150.08 69.2632 150.729 68.3914C164.692 53.2792 180.603 59.9634 196.514 65.1945C204.956 67.8101 206.58 75.0756 208.853 81.4692C221.841 118.668 206.58 149.765 177.355 173.886C153.327 193.939 125.402 211.376 91.9561 218.06C72.1487 222.129 52.3412 221.838 33.1832 215.735C13.051 209.632 0.0624959 189.58 0.0624959 164.586Z" fill="url(#paint2_linear)"/>
<path d="M0.0624959 164.586C-0.911642 137.268 9.47916 111.984 32.8585 90.769C39.6774 84.666 47.1458 78.8536 56.2378 75.6568C64.6803 72.7506 70.2004 75.3662 74.4217 82.0505C78.9676 89.0253 74.0969 92.2221 68.5768 95.1283C38.3786 110.241 40.0021 136.106 42.2751 161.099C43.574 176.211 57.8613 186.092 76.0452 187.255C104.945 189.58 129.623 178.827 150.729 163.424C171.186 148.602 169.238 107.044 149.755 91.9315C148.131 90.769 146.833 89.6066 145.209 88.4441C134.169 79.7255 134.493 75.9475 147.482 69.8445C148.456 69.2632 150.08 69.2632 150.729 68.3914C164.692 53.2792 180.603 59.9634 196.514 65.1945C204.956 67.8101 206.58 75.0756 208.853 81.4692C221.841 118.668 206.58 149.765 177.355 173.886C153.327 193.939 125.402 211.376 91.9561 218.06C72.1487 222.129 52.3412 221.838 33.1832 215.735C13.051 209.632 0.0624959 189.58 0.0624959 164.586Z" fill="white"/>
<path d="M1290.14 207.018C1291.44 183.478 1290.14 156.741 1296.64 130.004C1297.94 124.482 1299.24 118.669 1301.19 113.148C1303.78 104.72 1301.51 100.651 1290.79 102.395C1280.4 104.138 1270.01 105.301 1259.62 106.463C1255.73 106.754 1251.5 106.754 1247.61 106.463C1241.11 105.882 1233.97 105.01 1230.72 99.4885C1227.15 93.6761 1233.64 89.6075 1236.89 85.2482C1240.14 81.1795 1244.04 77.4014 1247.61 73.3328C1256.05 63.1611 1266.12 59.0924 1281.38 61.4174C1297.94 64.0329 1315.47 61.708 1332.36 59.9643C1369.7 55.8956 1407.37 52.1175 1445.03 53.5706C1451.53 53.8613 1458.02 54.4425 1464.19 55.3144C1468.09 55.8956 1472.63 56.4768 1473.93 60.8361C1475.23 65.486 1472.31 68.9735 1469.06 71.2984C1454.45 83.2138 1439.19 93.0949 1417.43 90.4793C1396.65 87.8637 1376.52 95.4198 1355.74 95.1292C1349.24 95.1292 1346 99.1979 1345.02 105.01C1334.63 153.253 1314.17 200.043 1315.8 250.029C1315.8 252.645 1316.12 257.295 1311.58 256.132C1306.06 254.389 1297.94 255.261 1295.67 247.995C1291.44 235.498 1288.2 223.002 1290.14 207.018Z" fill="url(#paint3_linear)"/>
<path d="M1290.14 207.018C1291.44 183.478 1290.14 156.741 1296.64 130.004C1297.94 124.482 1299.24 118.669 1301.19 113.148C1303.78 104.72 1301.51 100.651 1290.79 102.395C1280.4 104.138 1270.01 105.301 1259.62 106.463C1255.73 106.754 1251.5 106.754 1247.61 106.463C1241.11 105.882 1233.97 105.01 1230.72 99.4885C1227.15 93.6761 1233.64 89.6075 1236.89 85.2482C1240.14 81.1795 1244.04 77.4014 1247.61 73.3328C1256.05 63.1611 1266.12 59.0924 1281.38 61.4174C1297.94 64.0329 1315.47 61.708 1332.36 59.9643C1369.7 55.8956 1407.37 52.1175 1445.03 53.5706C1451.53 53.8613 1458.02 54.4425 1464.19 55.3144C1468.09 55.8956 1472.63 56.4768 1473.93 60.8361C1475.23 65.486 1472.31 68.9735 1469.06 71.2984C1454.45 83.2138 1439.19 93.0949 1417.43 90.4793C1396.65 87.8637 1376.52 95.4198 1355.74 95.1292C1349.24 95.1292 1346 99.1979 1345.02 105.01C1334.63 153.253 1314.17 200.043 1315.8 250.029C1315.8 252.645 1316.12 257.295 1311.58 256.132C1306.06 254.389 1297.94 255.261 1295.67 247.995C1291.44 235.498 1288.2 223.002 1290.14 207.018Z" fill="white"/>
<path d="M244.895 232.593C227.36 232.593 221.191 226.199 224.113 211.959C226.062 202.659 228.984 193.65 232.556 184.931C236.128 175.922 247.493 173.016 256.585 177.956C275.418 188.419 278.665 212.831 263.728 226.78C257.883 232.302 251.065 233.174 244.895 232.593Z" fill="url(#paint4_linear)"/>
<path d="M244.895 232.593C227.36 232.593 221.191 226.199 224.113 211.959C226.062 202.659 228.984 193.65 232.556 184.931C236.128 175.922 247.493 173.016 256.585 177.956C275.418 188.419 278.665 212.831 263.728 226.78C257.883 232.302 251.065 233.174 244.895 232.593Z" fill="white"/>
<defs>
<linearGradient id="paint0_linear" x1="641.975" y1="22.8262" x2="641.975" y2="251.842" gradientUnits="userSpaceOnUse">
<stop stop-color="#C1001B"/>
<stop offset="1" stop-color="#FF072A"/>
</linearGradient>
<linearGradient id="paint1_linear" x1="1110.94" y1="0" x2="1110.94" y2="252.181" gradientUnits="userSpaceOnUse">
<stop stop-color="#C1001B"/>
<stop offset="1" stop-color="#FF072A"/>
</linearGradient>
<linearGradient id="paint2_linear" x1="106.761" y1="59.1099" x2="106.761" y2="220.776" gradientUnits="userSpaceOnUse">
<stop stop-color="#C1001B"/>
<stop offset="1" stop-color="#FF072A"/>
</linearGradient>
<linearGradient id="paint3_linear" x1="1351.96" y1="53.2532" x2="1351.96" y2="256.316" gradientUnits="userSpaceOnUse">
<stop stop-color="#C1001B"/>
<stop offset="1" stop-color="#FF072A"/>
</linearGradient>
<linearGradient id="paint4_linear" x1="248.268" y1="175.566" x2="248.268" y2="232.747" gradientUnits="userSpaceOnUse">
<stop stop-color="#C1001B"/>
<stop offset="1" stop-color="#FF072A"/>
</linearGradient>
</defs>
</svg>
