<svg width="62" height="62" viewBox="0 0 62 62" fill="none" xmlns="http://www.w3.org/2000/svg">
<path d="M50.6065 14.8022C50.6066 15.5118 50.3963 16.2054 50.0022 16.7954C49.6081 17.3854 49.0479 17.8453 48.3924 18.1169C47.7369 18.3885 47.0156 18.4596 46.3197 18.3212C45.6238 18.1828 44.9845 17.8412 44.4828 17.3395C43.9811 16.8377 43.6395 16.1985 43.5011 15.5026C43.3627 14.8067 43.4338 14.0854 43.7054 13.4299C43.977 12.7744 44.4369 12.2142 45.0269 11.8201C45.6169 11.426 46.3105 11.2157 47.0201 11.2158C47.9712 11.216 48.8833 11.5939 49.5558 12.2665C50.2284 12.939 50.6063 13.8511 50.6065 14.8022V14.8022ZM62 30.999L61.9993 31.0442L61.7955 44.0501C61.7426 48.7397 59.8562 53.2222 56.54 56.5384C53.2238 59.8546 48.7413 61.741 44.0517 61.794L31 61.999L30.9548 61.9981L17.9489 61.795C13.2592 61.7421 8.77664 59.8557 5.46029 56.5395C2.14394 53.2233 0.25732 48.7408 0.204157 44.0512L0 30.999L0.000885791 30.9538L0.20401 17.9474C0.257323 13.2578 2.14399 8.77542 5.46031 5.45927C8.77662 2.14312 13.2591 0.256673 17.9487 0.203593L31 -0.00100708L31.0452 -0.000121289L44.0512 0.203002C48.7406 0.256086 53.2231 2.14256 56.5392 5.45873C59.8554 8.77491 61.7419 13.2573 61.795 17.9468L62 30.999ZM56.2263 30.999L56.0235 18.038C55.9875 14.85 54.705 11.8027 52.4506 9.5483C50.1962 7.29387 47.149 6.01141 43.961 5.97535L31 5.77296L18.039 5.97535C14.851 6.01148 11.8038 7.29396 9.54933 9.54837C7.2949 11.8028 6.01238 14.85 5.97621 18.038L5.77382 30.999L5.97621 43.9599C6.01227 47.148 7.29475 50.1953 9.54921 52.4497C11.8037 54.7042 14.851 55.9866 18.039 56.0226L31 56.225L43.961 56.0226C47.149 55.9867 50.1963 54.7043 52.4508 52.4498C54.7052 50.1954 55.9876 47.148 56.0235 43.9599L56.2263 30.999ZM46.9192 30.999C46.9192 34.1476 45.9856 37.2254 44.2363 39.8433C42.4871 42.4613 40.0008 44.5017 37.0919 45.7066C34.183 46.9115 30.9821 47.2267 27.8941 46.6125C24.806 45.9982 21.9695 44.482 19.7431 42.2556C17.5167 40.0293 16.0006 37.1927 15.3863 34.1046C14.7721 31.0166 15.0874 27.8157 16.2923 24.9068C17.4972 21.9979 19.5377 19.5117 22.1556 17.7624C24.7736 16.0132 27.8514 15.0796 31 15.0796C35.2206 15.0844 39.267 16.7631 42.2514 19.7476C45.2358 22.732 46.9145 26.7784 46.9192 30.999V30.999ZM41.1463 30.999C41.1463 28.9922 40.5512 27.0305 39.4363 25.3619C38.3214 23.6933 36.7367 22.3928 34.8827 21.6249C33.0287 20.8569 30.9885 20.656 29.0203 21.0475C27.0521 21.439 25.2442 22.4054 23.8252 23.8244C22.4062 25.2434 21.4398 27.0514 21.0483 29.0196C20.6569 30.9878 20.8578 33.028 21.6258 34.882C22.3938 36.736 23.6943 38.3206 25.3629 39.4355C27.0315 40.5504 28.9932 41.1455 31 41.1454C33.69 41.1423 36.269 40.0723 38.1711 38.1701C40.0732 36.268 41.1431 33.689 41.1462 30.999H41.1463Z" fill="#FF7D02"/>
</svg>
