<?xml version="1.0" standalone="no"?>
<!DOCTYPE svg PUBLIC "-//W3C//DTD SVG 20010904//EN"
 "http://www.w3.org/TR/2001/REC-SVG-20010904/DTD/svg10.dtd">
<svg version="1.0" xmlns="http://www.w3.org/2000/svg"
 width="512.000000pt" height="512.000000pt" viewBox="0 0 512.000000 512.000000"
 preserveAspectRatio="xMidYMid meet">
<metadata>
Created by potrace 1.14, written by Peter Selinger 2001-2017
</metadata>
<g transform="translate(0.000000,512.000000) scale(0.100000,-0.100000)"
fill="#000000" stroke="none">
<path d="M0 2560 l0 -2560 2560 0 2560 0 0 2560 0 2560 -2560 0 -2560 0 0
-2560z m636 274 l184 -176 0 141 0 141 85 0 85 0 0 -336 0 -336 -120 113 c-67
63 -152 143 -190 177 l-70 64 0 -256 0 -256 -85 42 -85 42 0 408 c0 225 3 408
6 408 3 0 88 -79 190 -176z m1818 131 c333 -87 370 -547 56 -694 -46 -22 -69
-26 -145 -26 -76 0 -99 4 -145 26 -107 50 -176 134 -206 249 -41 163 38 340
186 415 91 46 161 54 254 30z m1853 -180 l83 -79 47 44 c27 25 91 87 144 138
53 50 99 92 103 92 3 0 6 -179 6 -398 l0 -398 -85 -42 -85 -42 0 246 0 246
-62 -56 c-34 -31 -64 -56 -68 -56 -3 0 -30 25 -60 55 -30 30 -58 55 -62 55 -4
0 -8 -56 -8 -125 l0 -125 -80 0 -80 0 0 322 0 322 63 -59 c34 -33 99 -96 144
-140z m-2219 147 c-1 -4 -22 -42 -46 -85 l-43 -77 -70 0 -69 0 0 -195 0 -195
-80 -40 c-44 -22 -82 -40 -85 -40 -3 0 -5 106 -5 235 l0 235 -245 0 c-238 0
-245 -1 -245 -20 0 -19 7 -20 150 -20 83 0 150 -3 150 -7 0 -5 -19 -42 -43
-83 l-43 -75 -104 -5 -105 -5 -3 -88 -3 -87 -79 -40 -80 -40 0 320 0 320 526
0 c289 0 524 -3 522 -8z m1148 -18 c59 -43 69 -68 69 -164 0 -98 -12 -124 -75
-167 -30 -21 -44 -23 -166 -23 l-134 0 0 -88 0 -88 -85 -42 -85 -42 0 215 0
215 190 0 c183 0 190 1 190 20 0 19 -7 20 -203 20 -201 0 -204 0 -215 23 -6
12 -27 50 -47 85 l-35 63 284 -3 c269 -3 286 -4 312 -24z m274 -274 l0 -300
-85 0 -85 0 0 300 0 300 85 0 85 0 0 -300z m210 111 c0 -217 4 -228 77 -238
35 -5 45 -2 67 20 l26 26 0 191 0 190 86 0 85 0 -3 -223 -3 -224 -30 -49 c-20
-31 -47 -58 -75 -74 -40 -22 -57 -25 -145 -25 -108 0 -136 9 -188 61 -55 55
-61 80 -65 317 l-4 217 86 0 86 0 0 -189z"/>
</g>
</svg>
