<svg width="62" height="62" viewBox="0 0 62 62" fill="none" xmlns="http://www.w3.org/2000/svg">
<path d="M51.6667 19.4557C50.1597 20.1285 48.5317 20.5859 46.7826 20.8281C48.6124 19.7517 49.8637 18.1775 50.5365 16.1055C48.7873 17.128 46.9844 17.8142 45.1276 18.1641C43.4861 16.388 41.4275 15.5 38.9518 15.5C36.6107 15.5 34.6126 16.3275 32.9577 17.9824C31.3027 19.6374 30.4753 21.6354 30.4753 23.9766C30.4753 24.7569 30.5425 25.4028 30.6771 25.9141C27.2057 25.7257 23.9497 24.8511 20.9089 23.2904C17.8681 21.7296 15.2847 19.6441 13.1589 17.0339C12.3785 18.3793 11.9883 19.8056 11.9883 21.3125C11.9883 24.3802 13.2127 26.7348 15.6615 28.3763C14.3967 28.3494 13.0512 27.9996 11.625 27.3268V27.4076C11.625 29.4258 12.2977 31.222 13.6432 32.7962C14.9887 34.3704 16.6437 35.3459 18.6081 35.7227C17.8277 35.9379 17.1415 36.0456 16.5495 36.0456C16.1997 36.0456 15.6749 35.9918 14.9753 35.8841C15.5404 37.5794 16.5428 38.9787 17.9824 40.082C19.4221 41.1853 21.0569 41.7504 22.8867 41.7773C19.7652 44.1992 16.2535 45.4102 12.3516 45.4102C11.6519 45.4102 10.9792 45.3698 10.3333 45.2891C14.316 47.8186 18.6484 49.0833 23.3307 49.0833C26.3446 49.0833 29.1701 48.6057 31.8073 47.6504C34.4444 46.6951 36.7049 45.4169 38.5885 43.8158C40.4722 42.2146 42.0935 40.3713 43.4525 38.2858C44.8114 36.2003 45.8205 34.0206 46.4798 31.7467C47.1391 29.4729 47.4687 27.2057 47.4687 24.9453C47.4687 24.4609 47.4553 24.0977 47.4284 23.8555C49.1237 22.6445 50.5365 21.178 51.6667 19.4557ZM62 11.625V50.375C62 53.5773 60.8631 56.3153 58.5892 58.5892C56.3153 60.8631 53.5773 62 50.375 62H11.625C8.42274 62 5.68468 60.8631 3.41081 58.5892C1.13694 56.3153 0 53.5773 0 50.375V11.625C0 8.42274 1.13694 5.68468 3.41081 3.41081C5.68468 1.13694 8.42274 0 11.625 0H50.375C53.5773 0 56.3153 1.13694 58.5892 3.41081C60.8631 5.68468 62 8.42274 62 11.625Z" fill="#FF7D02"/>
</svg>
