<svg width="111" height="24" fill="none" xmlns="http://www.w3.org/2000/svg"><path d="M26.6 1.985H15.547v16.91l4.447-2.257V12.13h5.333l2.563-4.508h-7.896V6.493h12.718v12.402l4.44-2.257V6.493h3.544l2.568-4.508H26.6zM69.995 1.985H57.373l2.568 4.508h10.054c.368 0 .553.187.553.561 0 .375-.185.562-.553.562h-9.441v11.273l4.44-2.257V12.13h5c3.33 0 5-1.69 5-5.076 0-3.379-1.664-5.069-5-5.069zM80.257 1.985h-4.442v15.787h4.442V1.985zM90.144 11.001c0 1.503-.744 2.257-2.224 2.257-1.48 0-2.223-.754-2.223-2.257V1.985h-4.442v9.022c0 4.508 2.224 6.765 6.665 6.765s6.665-2.257 6.665-6.765V1.985h-4.441v9.016zM103.223 8.117L95.447.79v16.975h4.447v-6.65l3.329 3.144 3.336-3.144V24L111 21.743V.791l-7.777 7.326zM9.994 9.426L0 0v21.496l4.441 2.257V10.325l9.994 9.427V1.985h-4.44v7.441z" fill="#B69D64"/><path d="M50.274 1.092c-5.25 0-9.5 4.315-9.5 9.644 0 5.328 4.25 9.643 9.5 9.643s9.5-4.315 9.5-9.643c0-5.329-4.25-9.644-9.5-9.644z" fill="#B69D64"/></svg>