<svg width="64" height="67" viewBox="0 0 64 67" fill="none" xmlns="http://www.w3.org/2000/svg">
  <path d="M61.472 54.7504L57.4403 55.7359L56.606 56.3691L21.0396 51.5865H0L7.51258 32.9917L19.726 33.0647L22.6837 38.4321L32.4405 48.5604L31.1765 42.2538L39.8845 43.802L56.606 56.3691L43.3899 43.802L41.2198 37.7988L33.5861 19.2066C33.5861 19.2066 27.7205 8.82113 27.5993 8.70474C27.7646 8.72639 41.2198 8.65602 41.2198 8.65602L43.6763 18.6436L49.0934 37.7988L50.572 42.9821L55.8182 49.0529L51.5499 42.5355L54.3393 41.3635L55.675 47.2722L55.7962 49.0529L61.472 54.7504Z" fill="#F58C25"/>
  <path d="M19.7262 33.0619L7.51275 32.9917L4.60189 29.9196L6.43874 28.7015L3.14784 26.9421L5.9623 26.1924L2.09863 23.8024L4.41189 22.8172L4.98469 19.2525L11.4012 7.48392L20.0842 0L27.5747 8.69921L33.5863 19.1794L19.7262 33.0594V33.0619Z" fill="#81491F"/>
  <path d="M0 51.5865H21.0616L26.8117 59.1352C26.8117 59.1352 12.4998 63.3793 5.31772 65.5365C3.4809 60.7296 1.73769 56.1579 0 51.5865Z" fill="#E48027"/>
  <path d="M56.631 19.721L58.3245 21.6428L57.0855 23.0989L58.801 24.3169L57.5616 25.9355L57.848 28.4906L55.7249 30.9752L43.6768 18.6438L62.8796 3.00468L56.631 19.721Z" fill="#81491F"/>
  <path d="M56.6086 56.3691L56.68 61.0352L49.8341 64.435L26.7895 59.1569C26.7895 59.1569 26.6215 59.2759 26.7895 59.1569C36.4502 58.2449 56.6086 56.3691 56.6086 56.3691Z" fill="#D9C6B7"/>
  <path d="M62.8787 3.00468L43.6762 18.6438L41.2197 8.6562L62.8787 3.00468Z" fill="#E48027"/>
  <path d="M43.6768 18.6433L55.7 30.9749L55.199 37.3762L49.0935 37.7982L43.6768 18.6433Z" fill="#E57F24"/>
  <path d="M26.79 59.1321L49.8316 64.4101L56.6779 61.0079L61.3787 60.6101L57.7986 65.206L48.0911 66.0722L26.79 59.1321Z" fill="#C7B7AB"/>
  <path d="M26.7868 59.1353L21.0615 51.5837L32.4404 48.5604L26.7868 59.1353Z" fill="#D76F21"/>
  <path d="M61.378 60.6104C59.8028 60.7511 58.2524 60.8917 56.6772 61.011L56.6055 56.3445L57.4401 55.7113L61.4718 54.7504C61.4718 54.7504 62.8321 55.6868 63.9997 56.3445C63.0716 57.8442 62.2098 59.2271 61.378 60.6104Z" fill="#2A2626"/>
  <path d="M49.0898 37.7988L55.1981 37.3765L54.3634 41.3635L52.0502 38.6433L51.5491 42.5355L55.8175 49.0532L50.5716 42.9576L49.0927 37.7988H49.0898Z" fill="#D66F21"/>
  <path d="M19.7256 33.0616L33.5858 19.1818L41.2196 37.7982L22.686 38.4318L19.7256 33.0616Z" fill="#E47E25"/>
  <path d="M26.79 59.1353L32.4438 48.5604L56.609 56.3691L26.79 59.1353Z" fill="#E47F26"/>
  <path d="M22.6865 38.4321L41.2199 37.7989L39.8846 43.8023L36.7615 39.0656L31.1795 42.2542L22.6865 38.4321Z" fill="#D66F21"/>
  <path d="M39.8848 43.8023L41.2202 37.7989L43.3902 43.8023L56.6088 56.3694C56.6088 56.3694 43.7015 46.6849 39.8848 43.8023Z" fill="#E47F25"/>
  <path d="M39.8844 43.802L31.1768 42.2538L36.7588 39.0653L39.8844 43.802Z" fill="#32404E"/>
  <path d="M31.1795 42.2535L32.4434 48.56L22.6865 38.4343L31.1795 42.2563V42.2535Z" fill="#E57F25"/>
  <path d="M51.5498 42.5355L52.0508 38.6433L54.3641 41.361L51.5498 42.5355Z" fill="#38424D"/>
  <path d="M54.3643 41.3635L55.1986 37.3765L56.0798 41.6206L55.7 47.2722L54.3643 41.3635Z" fill="#E57F24"/>
</svg>
